<svg width="32" height="32" viewBox="0 0 32 32" fill="none" xmlns="http://www.w3.org/2000/svg">
  <!-- Background -->
  <rect width="32" height="32" rx="6" fill="url(#gradient)"/>
  
  <!-- Letter "F" with minimalist design -->
  <path d="M10 8C10 7.44772 10.4477 7 11 7H21C21.5523 7 22 7.44772 22 8C22 8.55228 21.5523 9 21 9H12V14H19C19.5523 14 20 14.4477 20 15C20 15.5523 19.5523 16 19 16H12V24C12 24.5523 11.5523 25 11 25C10.4477 25 10 24.5523 10 24V8Z" fill="white"/>
  
  <!-- Minimize icon (three dots) -->
  <circle cx="24" cy="23" r="1.5" fill="white" opacity="0.9"/>
  <circle cx="24" cy="19" r="1.5" fill="white" opacity="0.9"/>
  <circle cx="24" cy="15" r="1.5" fill="white" opacity="0.9"/>
  
  <!-- Gradient definition -->
  <defs>
    <linearGradient id="gradient" x1="0" y1="0" x2="32" y2="32" gradientUnits="userSpaceOnUse">
      <stop stop-color="#6366f1"/>
      <stop offset="1" stop-color="#8b5cf6"/>
    </linearGradient>
  </defs>
</svg>
